<?xml version="1.0" encoding="UTF-8" standalone="no"?>
<svg
   xmlns:dc="http://purl.org/dc/elements/1.1/"
   xmlns:cc="http://creativecommons.org/ns#"
   xmlns:rdf="http://www.w3.org/1999/02/22-rdf-syntax-ns#"
   xmlns:svg="http://www.w3.org/2000/svg"
   xmlns="http://www.w3.org/2000/svg"
   viewBox="0 0 765 990"
   height="990"
   width="765"
   xml:space="preserve"
   version="1.1"
   id="svg3336">
   <metadata
     id="metadata3342"><rdf:RDF><cc:Work
         rdf:about=""><dc:format>image/svg+xml</dc:format><dc:type
           rdf:resource="http://purl.org/dc/dcmitype/StillImage" /><dc:title></dc:title></cc:Work></rdf:RDF></metadata><defs
     id="defs3340" />
	 
	 <g
     transform="scale(0.9375,0.9375)"
     id="g3344">
		<g
       id="g3346"><!-- This is the border. One contiguous path. --><path
         id="path3348"
         style="fill:none;stroke:#00FF00;stroke-width:0.95999998;stroke-linecap:round;stroke-linejoin:round;stroke-miterlimit:10;stroke-dasharray:none;stroke-opacity:1"
         d="m 0,1055.84 815.67999,0 0,-1055.68 L 0,0.16 0,1055.84 Z" /></g><g
       id="g3350"><!-- This is the triangle. One contiguous path. --><path
         id="path3352"
         style="fill:none;stroke:#000000;stroke-width:0.95999998;stroke-linecap:round;stroke-linejoin:round;stroke-miterlimit:10;stroke-dasharray:none;stroke-opacity:1"
         d="m 191.84,528 96,-166.23999 96,166.23999 -192,0 z" /></g><g
       transform="translate(538.88,704.15997)"
       id="g3354"><!-- This is the circle. One contiguous path. --><path
         id="path3356"
         style="fill:none;stroke:#FF0000	;stroke-width:0.95999998;stroke-linecap:round;stroke-linejoin:bevel;stroke-miterlimit:10;stroke-dasharray:none;stroke-opacity:1"
         d="M 0,0 -0.16,-6.24 -0.8,-12.32 -1.76,-18.559999 -3.2,-24.48 -4.96,-30.559999 -7.2,-36.32 -9.76,-41.919998 -12.64,-47.52 l -3.2,-5.279999 -3.520001,-4.959999 -4,-4.960003 -4.159999,-4.479996 -4.48,-4.32 -4.799999,-4 -4.959999,-3.68 -5.280003,-3.200005 -5.439999,-3.04 -5.600002,-2.720002 -5.759998,-2.239998 -5.920002,-1.760002 -6.079994,-1.599998 -6.080002,-1.119995 -6.240006,-0.64 -6.079994,-0.319999 -6.240002,0.159996 -6.24,0.480003 -6.08,0.799995 -6.08,1.440003 -5.92,1.599998 -5.92,2.080002 -5.76,2.400002 -5.44,2.879997 -5.44,3.199997 -5.12,3.520004 -4.8,3.680001 -4.64,4.159996 -4.32,4.480003 -4.15999,4.639999 -3.68001,4.959999 -3.36,5.279999 -3.2,5.280003 -2.72,5.599998 -2.24001,5.760002 -2.07998,5.919999 -1.60001,5.92 -1.11999,6.08 -0.80001,6.24 -0.47999,6.24 0,6.08 0.47999,6.24 0.80001,6.24 1.11999,6.08 1.60001,5.92 2.07998,5.919999 2.24001,5.760002 2.72,5.599998 3.2,5.280003 3.36,5.279999 3.68001,4.959999 4.15999,4.639999 4.32,4.480003 4.64,4.159996 4.8,3.680001 5.12,3.520004 5.44,3.199997 5.44,2.879997 5.76,2.400002 5.92,2.080002 5.92,1.599998 6.08,1.440003 6.08,0.799995 6.24,0.480003 6.240002,0.159996 6.079994,-0.319999 6.240006,-0.64 6.080002,-1.119995 6.079994,-1.599998 5.920002,-1.760002 5.759998,-2.239998 5.600002,-2.720002 5.439999,-3.04 5.280003,-3.200005 4.959999,-3.68 4.799999,-4 4.48,-4.32 4.159999,-4.479996 4,-4.960003 L -15.84,52.799999 -12.64,47.52 -9.76,41.919998 -7.2,36.32 -4.96,30.559999 -3.2,24.48 -1.76,18.559999 -0.8,12.32 -0.16,6.24 0,0 Z" /></g><g
       id="g3358"><!-- This is the box. One contiguous path. --><path
         id="path3360"
         style="fill:none;stroke:#FFA000;stroke-width:0.95999998;stroke-linecap:round;stroke-linejoin:round;stroke-miterlimit:10;stroke-dasharray:none;stroke-opacity:1"
         d="m 75.360001,810.71997 0,-192 191.999989,0 0,192 -191.999989,0 z" /></g></g></svg>